<svg width="72" height="48" viewBox="0 0 72 48" fill="none" xmlns="http://www.w3.org/2000/svg">
<path d="M58.3993 18.4999L36.3993 29.1999C36.1993 29.2999 35.9993 29.2999 35.7993 29.1999L13.4993 18.4999C12.9993 18.1999 12.8993 17.4999 13.4993 17.1999L35.5993 6.0999C35.7993 5.9999 35.9993 5.9999 36.2993 6.0999L58.4993 17.1999C58.8993 17.4999 58.8993 18.2999 58.3993 18.4999Z" fill="#DBE7FF"/>
<path d="M56.6004 20.1999L36.3004 30.0999C36.1004 30.1999 35.8004 30.1999 35.6004 30.0999L15.1004 20.1999C14.5004 19.8999 14.5004 19.0999 15.1004 18.7999L35.5004 8.5999C35.7004 8.4999 36.0004 8.4999 36.2004 8.5999L56.6004 18.7999C57.2004 19.0999 57.2004 19.9999 56.6004 20.1999Z" fill="#DEDAFF"/>
<path d="M54.6996 20.4001L35.9996 29.8001L17.0996 20.4001L35.1996 11.0001C35.5996 10.8001 36.0996 10.8001 36.5996 11.0001L54.6996 20.4001Z" fill="#D1C3FF"/>
<path d="M35.4996 0.7L0.999609 17.8C0.299609 18.1 0.299609 19.1 0.999609 19.4L35.4996 36.7C35.6996 36.8 35.9996 36.8 36.2996 36.7L70.7996 19.4C71.4996 19.1 71.4996 18.1 70.7996 17.8L36.2996 0.7C35.9996 0.6 35.7996 0.6 35.4996 0.7ZM13.6996 17.1L35.4996 6.2C35.6996 6.1 35.9996 6.1 36.2996 6.2L58.0996 17.1C58.7996 17.4 58.6996 18.4 58.0996 18.7L36.3996 29.2C36.1996 29.3 35.8996 29.3 35.5996 29.2L13.6996 18.6C12.9996 18.4 12.9996 17.4 13.6996 17.1Z" fill="#552084"/>
<path d="M64.0004 26V33.4L35.9004 47.4V40L64.0004 26Z" fill="#9333FF"/>
<path d="M35.9 39.9999V47.3999L8 33.3999C8 30.9999 8 28.6 8 26.2C17.3 30.8 26.6 35.3999 35.9 39.9999Z" fill="#552084"/>
<path d="M0.5 32.2999C0.5 27.7999 0.5 23.2 0.5 18.7L3.20001 19.9999C3.20001 24.5999 3.20001 29.1 3.20001 33.7C3.20001 34 2.90001 34.0999 2.70001 33.9999C2.20001 33.7999 1.70001 33.4999 1.20001 33.2999C0.800012 33.0999 0.5 32.6999 0.5 32.2999Z" fill="#552084"/>
<path d="M0.5 31.6999V42.7999C0.5 42.8999 0.499976 42.9999 0.599976 42.9999L4.90002 45.7999C5.10002 45.8999 5.29999 45.7999 5.29999 45.5999V34.0999C5.29999 33.9999 5.30001 33.8999 5.20001 33.8999L0.900024 31.4999C0.700024 31.3999 0.5 31.5999 0.5 31.6999Z" fill="#9333FF"/>
<path d="M42.7996 24.2L37.2996 26.9C36.4996 27.3 35.4996 27.3 34.6996 26.9L29.0996 24.2C28.5996 24 28.5996 23.2 29.0996 23L34.7996 20.1C35.4996 19.8 36.2996 19.8 36.9996 20.1L42.6996 23C43.2996 23.3 43.2996 24 42.7996 24.2Z" fill="#0066C6"/>
<path d="M42.6992 14.3999L36.7992 17.2999C36.2992 17.4999 35.6992 17.4999 35.1992 17.2999L29.1992 14.3999C28.6992 14.0999 28.6992 13.4 29.1992 13.1L35.1992 10.1C35.6992 9.89995 36.1992 9.89995 36.6992 10.1L42.7992 13.1C43.2992 13.4 43.2992 14.0999 42.6992 14.3999Z" fill="#339366"/>
<path d="M33.8992 19.1999L28.0992 21.9999C27.4992 22.2999 26.6992 22.2999 26.0992 21.9999L20.1992 19.1999C19.6992 18.9999 19.6992 18.1999 20.1992 17.9999L26.1992 14.9999C26.7992 14.6999 27.3992 14.6999 27.9992 14.9999L33.9992 17.9999C34.3992 18.2999 34.3992 18.9999 33.8992 19.1999Z" fill="#C63333"/>
<path d="M51.2 19.9999L45.8 22.5999C45.2 22.8999 44.5 22.8999 43.9 22.5999L38.4 19.9999C37.7 19.6999 37.7 18.6999 38.4 18.2999L43.9 15.4999C44.4 15.1999 45 15.1999 45.6 15.4999L51.2 18.2999C51.9 18.6999 51.8 19.6999 51.2 19.9999Z" fill="#C66633"/>
<path d="M42.7996 23.7L37.2996 26.4C36.4996 26.8 35.4996 26.8 34.6996 26.4L29.0996 23.7C28.5996 23.5 28.5996 22.7 29.0996 22.5L34.7996 19.6C35.4996 19.3 36.2996 19.3 36.9996 19.6L42.6996 22.5C43.2996 22.7 43.2996 23.4 42.7996 23.7Z" fill="#0093FF"/>
<path d="M42.6992 13.8001L36.7992 16.7001C36.2992 16.9001 35.6992 16.9001 35.1992 16.7001L29.1992 13.8001C28.6992 13.5001 28.6992 12.8001 29.1992 12.5001L35.1992 9.5001C35.6992 9.3001 36.1992 9.3001 36.6992 9.5001L42.7992 12.5001C43.2992 12.8001 43.2992 13.6001 42.6992 13.8001Z" fill="#33C693"/>
<path d="M33.8992 18.6999L28.0992 21.4999C27.4992 21.7999 26.6992 21.7999 26.0992 21.4999L20.1992 18.6999C19.6992 18.4999 19.6992 17.6999 20.1992 17.4999L26.1992 14.4999C26.7992 14.1999 27.3992 14.1999 27.9992 14.4999L33.9992 17.4999C34.3992 17.6999 34.3992 18.3999 33.8992 18.6999Z" fill="#FF3366"/>
<path d="M51.2 19.4999L45.8 22.0999C45.2 22.3999 44.5 22.3999 43.9 22.0999L38.4 19.4999C37.7 19.1999 37.7 18.1999 38.4 17.7999L43.9 14.9999C44.4 14.6999 45 14.6999 45.6 14.9999L51.2 17.7999C51.9 18.0999 51.8 19.0999 51.2 19.4999Z" fill="#FF9333"/>
</svg>
